<?xml version="1.0" encoding="UTF-8"?>
<!-- Generator: Adobe Illustrator 16.0.0, SVG Export Plug-In . SVG Version: 6.00 Build 0)  -->
<!DOCTYPE svg PUBLIC "-//W3C//DTD SVG 1.1//EN" "http://www.w3.org/Graphics/SVG/1.1/DTD/svg11.dtd">
<svg version="1.1" id="Layer_1" xmlns:x="http://ns.adobe.com/Extensibility/1.0/" xmlns:i="http://ns.adobe.com/AdobeIllustrator/10.0/" xmlns:graph="http://ns.adobe.com/Graphs/1.0/" xmlns="http://www.w3.org/2000/svg" xmlns:xlink="http://www.w3.org/1999/xlink" xmlns:a="http://ns.adobe.com/AdobeSVGViewerExtensions/3.0/" x="0px" y="0px" width="864px" height="864px" viewBox="0 0 864 864" enable-background="new 0 0 864 864" xml:space="preserve">
<path fill-rule="evenodd" clip-rule="evenodd" d="M225.918,451.954c2.37-12.163,4.45-23.452,6.901-34.661  c0.309-1.406,2.397-2.822,3.973-3.439c1.499-0.585,3.405-0.134,5.132-0.134c133.379-0.001,266.758,0.022,400.136-0.049  c9.856-0.006,20-1.458,25.232,11.115c2.994-3.357,4.878-5.982,7.278-7.99c1.736-1.45,4.114-2.822,6.279-2.948  c10.16-0.59,10.191-0.439,13.578,9.097c3.373,9.505,6.699,19.026,10.209,29.009C544.716,451.954,385.709,451.954,225.918,451.954z"/>
<path fill-rule="evenodd" clip-rule="evenodd" d="M119.531,494.351c8.411-11.621,16.027-22.427,24.056-32.919  c1.151-1.503,4.295-2.069,6.519-2.075c33.393-0.093,66.786-0.011,100.179,0.016c101.523,0.085,203.046,0.155,304.569,0.247  c48.938,0.046,97.875,0.185,146.812,0.093c4.272-0.008,7.102,1.29,9.834,4.477c8.348,9.735,16.984,19.221,26.394,29.797  c-2.807,0.199-4.553,0.434-6.296,0.434c-81.564,0.018-163.13,0.041-244.694-0.103c-2.798-0.004-6.059-1.098-8.318-2.755  c-28.809-21.13-62.023-25.329-98.667,3.14c-2.272,1.34-119.275-0.066-121.685-0.062c-44.908,0.093-89.817,0.068-134.726,0.056  C122.597,494.694,121.686,494.543,119.531,494.351z"/>
<path fill-rule="evenodd" clip-rule="evenodd" d="M234.554,407.927c0-11.449,0-22.456,0-33.816c25.623,0,52.216,0,79.733,0  c-2.792,6.696-5.44,13.05-8.525,20.454c5.398,0,9.926,0.272,14.386-0.165c1.365-0.132,3.022-1.979,3.716-3.435  c2.059-4.317,3.917-8.761,5.439-13.294c1.048-3.118,2.831-3.958,5.955-3.957c70.022,0.074,140.043,0.025,210.063,0.178  c2.798,0.005,5.594,1.768,7.172,2.3c3.881-0.937,6.934-2.152,10.046-2.324c6.121-0.338,12.285-0.294,18.403,0.04  c1.573,0.086,3.835,1.489,4.453,2.876c4.563,10.254,8.789,20.658,13.176,31.141C478.147,407.927,356.571,407.927,234.554,407.927z"/>
<path fill-rule="evenodd" clip-rule="evenodd" d="M436.427,267.16c3.204,5.114,5.806,9.266,8.839,14.104  c1.561-3.592,2.079-7.389,4.231-8.989c2.043-1.52,5.796-0.746,9.396-1.028c0-4.509,0-8.827,0-13.545c20.477,0,40.335,0,60.837,0  c0,4.373,0,8.688,0,13.584c3.953,0,7.307,0,11.113,0c0,15.205,0,29.825,0,45.104c-2.482,0-4.73,0-6.981,0  c-47.414,0.002-94.83,0.002-142.243,0.002c-11.805,0-11.805,0-14.109-12.191c1.686-0.221,3.357-0.441,5.064-0.664  c-1.945-17.304,10.199-29.681,15.642-44.393c1.353-3.653,9.11-3.001,10.76,0.75c4.71,10.708,9.544,21.386,13.563,32.357  c1.167,3.187-0.246,7.317-0.479,11.057c5.272,1.708,8.541,0.225,10.771-5.494C426.725,287.825,431.482,278.173,436.427,267.16z"/>
<path fill-rule="evenodd" clip-rule="evenodd" d="M529.959,322.388c5.024,15.557,9.878,30.585,14.769,45.73  c-56.258,0-113.262,0-170.259,0c0.833-7.615,2.232-15.131,2.318-22.662c0.087-7.579-1.128-15.173-1.8-23.068  C426.852,322.388,478.923,322.388,529.959,322.388z"/>
<path fill-rule="evenodd" clip-rule="evenodd" d="M128.772,572.735c2.643-9.117,5.03-17.352,7.44-25.668  c72.463,0,152.375,0.147,224.91,0.147c0,17.836,0,12.841,0,30.968c-1.837,0.113-11.677,0.2-13.682,0.2  c-67.886,0.021-135.774,0.127-203.66-0.217C138.971,578.143,134.177,574.775,128.772,572.735z"/>
<path fill-rule="evenodd" clip-rule="evenodd" d="M136.012,533.985c0-10.211,0-20.127,0-30.45c37.151,0,216.781-0.629,239.696-0.629  c0,0-11.018,25.668-12.667,31.079C290.688,533.985,208.756,533.985,136.012,533.985z"/>
<path fill-rule="evenodd" clip-rule="evenodd" d="M28.659,578.121c-1.743-0.821-7.7,0-7.7,0c0-111.889,42.17-197.209,86.424-260.885  C168.06,242.299,245.135,192.84,340.03,172.462c32.826-7.047,66.039-9.275,99.536-7.924c1.468,0.059,2.93,0.254,4.605,0.404  c-0.594,4.622-2.526,6.3-7.227,6.179c-71.544-1.843-139.032,13.69-201.557,48.771C45.693,336.074,35.923,503.535,28.659,578.121z"/>
<path fill-rule="evenodd" clip-rule="evenodd" d="M539.395,177.808c64.804,12.688,115.079,37.794,165.553,79.674  c58.388,48.447,98.88,109.081,121.604,181.475c13.94,44.409,18.93,89.954,16.606,136.381c-0.219,4.367-1.983,5.354-6.234,3.78  c3.559-94.198-21.94-179.701-79.716-254.59c-57.697-74.789-126.221-119.682-218.667-140.292  C538.796,182.329,539.053,180.382,539.395,177.808z"/>
<path fill-rule="evenodd" clip-rule="evenodd" d="M459.613,186.445c20.17,0,39.456,0,60.342,0c0,4.061,0.277,6.008-0.069,9.899  c-0.475,5.346,0.876,9.575,5.079,13.217c1.349,1.168,2.32,4.76,1.528,6.09c-5.936,9.98-7.504,20.691-6.558,32.001  c0.079,0.946-0.035,1.913-0.121,2.864c-0.034,0.354-0.243,0.692-0.523,1.444c-19.826,0-39.793,0-60.397,0  c0-2.38-0.131-4.447,0.023-6.492c0.772-10.118-0.502-19.783-5.442-28.867c-0.804-1.478-0.929-4.818-0.021-5.496  c6.743-5.039,6.428-12.061,6.173-19.191C459.544,189.636,459.613,189.351,459.613,186.445z"/>
<path fill-rule="evenodd" clip-rule="evenodd" d="M490.773,101.013c8.49,17.452,16.947,34.823,25.393,52.201  c3.515,7.236,6.954,14.509,10.529,21.715c2.113,4.258,0.785,6.098-3.816,6.094c-22.048-0.019-44.097-0.006-66.146-0.017  c-3.945-0.002-6.046-1.374-3.924-5.62c12.244-24.501,24.497-49,36.769-73.489C489.716,101.62,490.129,101.478,490.773,101.013z"/>
<path fill-rule="evenodd" clip-rule="evenodd" d="M303.29,368.115c-23.154,0-45.663,0-69.109,0c2.896-4.9,5.377-9.145,7.901-13.362  c5.81-9.708,11.758-19.333,17.395-29.14c1.771-3.083,3.996-2.718,7.345-3.168c9.431-1.266,15.005,0.861,18.688,10.088  c4.173,10.455,10.171,20.179,15.348,30.236C301.701,364.411,302.392,366.133,303.29,368.115z"/>
<path fill-rule="evenodd" clip-rule="evenodd" d="M585.496,367.952c-9.748,0-18.847,0-28.79,0c0-3.525,0.239-6.918-0.086-10.257  c-0.211-2.144-0.641-4.855-2.044-6.175c-3.516-3.305-3.867-6.544-1.691-10.578c0.897-1.667,1.355-3.57,2.017-5.366  c5.477-14.902,6.276-15.457,22.042-13.376c1.481,0.194,3.24,1.758,4.019,3.16c2.407,4.342,4.158,9.052,6.624,13.357  c2.861,4.996,4.611,9.493-0.856,14.006c-1.022,0.845-1.101,3.122-1.183,4.758C585.377,360.862,585.496,364.258,585.496,367.952z"/>
<path fill-rule="evenodd" clip-rule="evenodd" d="M607.786,408.07c3.79-11.203,7.297-21.859,11.126-32.397  c0.366-1.006,2.725-1.767,4.188-1.814c6.122-0.2,12.261-0.203,18.383,0.006c1.446,0.048,3.769,0.862,4.141,1.886  c3.836,10.545,7.352,21.207,11.121,32.319C640.202,408.07,624.447,408.07,607.786,408.07z"/>
<path fill-rule="evenodd" clip-rule="evenodd" d="M200.724,450.854c-16.896,0-32.926,0-49.567,0  c0.536-1.486,0.855-2.899,1.518-4.128c5.186-9.607,10.665-19.063,15.585-28.804c2.999-5.935,8.017-2.584,12.103-3.457  c3.312-0.708,4.665,1.321,5.858,4.052C190.874,429.158,195.709,439.719,200.724,450.854z"/>
<path fill-rule="evenodd" clip-rule="evenodd" d="M347.165,328.657c4.111,13.056,8.221,26.113,12.466,39.593  c-9.116,0-17.501,0-26.937,0c4.528-13.566,8.904-26.674,13.278-39.782C346.371,328.531,346.768,328.595,347.165,328.657z"/>
<path fill-rule="evenodd" clip-rule="evenodd" d="M634.285,339.625c3.062,9.29,6.126,18.579,9.356,28.378  c-7.557,0-14.205,0-21.978,0c3.834-9.693,7.503-18.967,11.171-28.24C633.317,339.716,633.802,339.67,634.285,339.625z"/>
<path fill-rule="evenodd" clip-rule="evenodd" d="M247.037,282.965c8.045-2.146,16.09-4.292,24.579-6.557c0,4.287,0,8.016,0,12.281  c-8.343-1.565-16.372-3.072-24.4-4.577C247.157,283.73,247.097,283.348,247.037,282.965z"/>
<path fill-rule="evenodd" clip-rule="evenodd" d="M368.044,221.83c7.858-2.092,15.715-4.184,24.176-6.438c0,4.239,0,7.899,0,12.167  c-8.227-1.527-16.234-3.015-24.242-4.502C368.001,222.648,368.022,222.239,368.044,221.83z"/>
<path fill-rule="evenodd" clip-rule="evenodd" d="M466.321,81.912c7.661-2.049,15.323-4.099,23.628-6.32c0,3.909,0,7.363,0,12.107  c-7.851-1.426-15.754-2.858-23.657-4.292C466.303,82.908,466.312,82.41,466.321,81.912z"/>
<path fill-rule="evenodd" clip-rule="evenodd" d="M633.369,310.285c0,4.477,0,8.046,0,12.347  c-8.393-1.589-16.348-3.095-24.303-4.602c0.002-0.406,0.002-0.811,0.002-1.215C616.905,314.709,624.74,312.603,633.369,310.285z"/>
<path fill-rule="evenodd" clip-rule="evenodd" d="M568.948,270.242c0,4.405,0,7.795,0,12.258c-8.254-1.496-16.137-2.925-24.02-4.355  c-0.069-0.464-0.138-0.928-0.207-1.393C552.582,274.641,560.442,272.528,568.948,270.242z"/>
<path fill-rule="evenodd" clip-rule="evenodd" d="M561.856,316.252c2.481-6.843,4.657-12.839,7.447-20.537  c3.141,7.703,5.649,13.855,8.375,20.537C572.135,316.252,567.439,316.252,561.856,316.252z"/>
<path fill-rule="evenodd" clip-rule="evenodd" d="M152.31,375.183c7.839-2.097,15.679-4.193,24.062-6.436c0,4.202,0,7.864,0,12.165  c-8.207-1.536-16.143-3.021-24.079-4.505C152.298,375.998,152.304,375.59,152.31,375.183z"/>
<path fill-rule="evenodd" clip-rule="evenodd" d="M271.646,302.167c2.45,5.072,4.379,9.068,6.58,13.625c-4.771,0-8.688,0-13.717,0  C266.857,311.309,268.898,307.414,271.646,302.167z"/>
<path fill-rule="evenodd" clip-rule="evenodd" d="M678.451,407.879c1.822-4.72,3.447-8.93,5.668-14.688  c2.082,5.503,3.68,9.734,5.554,14.688C685.734,407.879,682.48,407.879,678.451,407.879z"/>
<path fill-rule="evenodd" clip-rule="evenodd" d="M172.19,406.264c1.937-3.641,3.409-6.408,5.569-10.472  c1.563,4.246,2.623,7.125,3.855,10.472C178.36,406.264,175.751,406.264,172.19,406.264z"/>
<path fill-rule="evenodd" clip-rule="evenodd" d="M609.763,503.233c0.114,0.042,0.219,0.089,0.332,0.131l-43.742-0.102  c0.069-0.026,0.136-0.055,0.205-0.08c-26.549,0-51.364-0.276-77.848-0.276c4.658,7.958,9.4,31.489,11.854,30.805h140.491  c24.373,0,48.277,0,72.297,0c0-10.312,0-20.221,0-30.478C679.009,503.233,645.285,503.233,609.763,503.233z"/>
<path fill-rule="evenodd" clip-rule="evenodd" d="M719.23,552.404c-0.825-3.412-2.269-4.587-5.84-4.565  c-25.521,0.151-51.039,0.152-76.558-0.003c-0.887-0.006-1.649,0.088-2.325,0.272l-115.911-0.272l0.062,0.294  c-2.027,0-4.306-1.866-14.772-1.062v30.419l99.18,1.661c-0.127,0.093-0.228,0.169-0.36,0.268c41.65,0,82.197,0,123.758,0  C723.847,569.763,721.339,561.133,719.23,552.404z"/>
</svg>